<svg id="Capa_1" enable-background="new 0 0 512.003 512.003" height="512" viewBox="0 0 512.003 512.003" width="512" xmlns="http://www.w3.org/2000/svg"><path d="m504.589 426.503-59.422-15.922c5.919-4.199 10.361-10.472 12.257-17.552l2.62-9.779 39.369 10.549c.867.232 1.737.343 2.594.343 4.415 0 8.456-2.947 9.653-7.414 1.43-5.335-1.736-10.818-7.071-12.248l-39.368-10.549 5.144-19.198c2.068-7.719.996-15.798-3.018-22.752-4.015-6.954-10.477-11.922-18.195-13.99l-173.866-46.587c-12.589-3.374-25.49 1.826-32.491 12l-11.323-3.034c-7.718-2.069-15.8-.996-22.752 3.018-6.953 4.015-11.921 10.477-13.989 18.195l-1.294 4.829-10.273-2.753c1.86-14.02-.605-27.123-7.274-38.585 3.67-6.59 5.642-14.073 5.642-21.679 0-6.662-1.482-13.159-4.283-19.063 10.329-5.915 19.238-14.054 26.152-23.963 9.489-13.602 14.506-29.585 14.506-46.224 0-44.595-36.28-80.875-80.875-80.875-2.47 0-4.978.115-7.454.343-5.5.505-9.549 5.373-9.044 10.872s5.368 9.554 10.872 9.044c1.872-.172 3.765-.259 5.626-.259 33.566 0 60.875 27.308 60.875 60.875 0 24.878-15.539 47.632-38.689 56.7-.071.026-.143.043-.214.07-7.034 2.723-14.427 4.104-21.973 4.104-5.522 0-10 4.477-10 10s4.478 10 10 10c7.379 0 14.646-1.002 21.697-2.97 1.818 3.474 2.803 7.351 2.803 11.345 0 5.663-1.876 10.979-5.426 15.375-2.883 3.569-2.967 8.642-.204 12.305 6.63 8.789 9.061 18.765 7.391 30.323-6.452 1.915-11.802 7.016-13.668 13.979l-4.981 18.589c-33.483-12.03-45.553-27.664-43.45-53.859.295-3.675-1.456-7.214-4.556-9.209-4.681-3.012-7.475-8.126-7.475-13.681 0-1.492.2-2.967.596-4.383 1-3.583-.071-7.424-2.781-9.973s-6.612-3.381-10.124-2.165c-4.501 1.56-9.22 2.35-14.025 2.35-23.616.004-42.828-19.208-42.828-42.822 0-23.615 19.212-42.827 42.826-42.827.947 0 1.944.035 2.964.104 5.391.369 10.133-3.651 10.633-9.055.172-1.851.434-3.726.778-5.571 1.016-5.429-2.563-10.652-7.991-11.667-4.862-.911-9.572 1.874-11.224 6.374-32.389 2.479-57.986 29.627-57.986 62.642 0 34.643 28.184 62.826 62.826 62.826 2.263 0 4.513-.12 6.745-.359 1.241 8.225 5.261 15.727 11.408 21.318-.906 47.526 38.51 64.708 77.607 75.184.001 0 .002 0 .004.001l19.316 5.176-1.294 4.83c-4.281 15.978 5.235 32.46 21.213 36.742l93.784 25.129c.867.232 1.737.343 2.594.343 4.415 0 8.456-2.947 9.653-7.414 1.43-5.335-1.736-10.818-7.071-12.248l-93.784-25.129c-5.325-1.427-8.497-6.921-7.07-12.248l18.117-67.615c.686-2.559 2.345-4.708 4.671-6.051 2.326-1.344 5.015-1.706 7.576-1.02l9.66 2.588-2.588 9.658c-3.891 14.523 4.01 29.065 19.661 36.185l158.39 72.058-2.984 11.137c-.686 2.559-2.345 4.708-4.671 6.051-2.326 1.344-5.015 1.707-7.577 1.02l-12.468-3.341c-5.336-1.429-10.817 1.737-12.247 7.071-1.43 5.335 1.736 10.818 7.071 12.248l12.468 3.341c2.569.688 5.177 1.029 7.771 1.029 5.2 0 10.342-1.369 14.98-4.047 6.918-3.994 11.867-10.41 13.955-18.075l71.696 19.211c.867.232 1.737.343 2.594.343 4.415 0 8.456-2.947 9.653-7.414 1.431-5.335-1.735-10.818-7.07-12.248zm-340.822-96.628c-.001 0-.002-.001-.003-.001l5.177-19.319 19.319 5.177-5.176 19.319zm88.919-22.765 5.176-19.316c1.196-4.462 5.247-7.413 9.662-7.413.854 0 1.723.11 2.586.342l173.866 46.587c2.559.686 4.707 2.344 6.05 4.671 1.344 2.327 1.706 5.018 1.021 7.576l-12.94 48.296c-.82 3.062-3.258 6.009-6.064 7.334-1.719.811-3.274.909-4.631.293l-166.102-75.564c-4.956-2.256-10.19-6.962-8.624-12.806z"/><path d="m162.026 156.904v-.007c0-5.523-4.478-9.996-10-9.996s-10 4.48-10 10.003 4.478 10 10 10 10-4.477 10-10z"/><path d="m67.027 192.904c0 5.523 4.478 10 10 10s10-4.477 10-10v-.007c0-5.523-4.478-9.996-10-9.996s-10 4.48-10 10.003z"/><path d="m123.526 271.154c5.522 0 10-4.477 10-10v-.007c0-5.523-4.478-9.996-10-9.996s-10 4.48-10 10.003 4.478 10 10 10z"/><path d="m340.414 413.443-.007-.002c-5.312-1.515-10.841 1.559-12.358 6.869-1.518 5.31 1.561 10.846 6.871 12.363.918.262 1.843.387 2.752.387 4.352 0 8.355-2.863 9.61-7.255 1.518-5.31-1.557-10.845-6.868-12.362z"/><path d="m89.315 101.741c5.522 0 10-4.477 10-10s-4.478-10-10-10h-.008c-5.522 0-9.996 4.477-9.996 10s4.482 10 10.004 10z"/></svg>