<svg id="Capa_1" enable-background="new 0 0 511.944 511.944" height="512" viewBox="0 0 511.944 511.944" width="512" xmlns="http://www.w3.org/2000/svg"><path d="m486.926 14.454c-19.271-19.272-50.629-19.273-69.902 0l-23.817 23.817-16.394-16.394-163.295 137.228-19.262-19.262-69.902 69.903 18.391 18.391-48.715 48.715 13.025 13.025-89.426 89.425 41.618 41.618-13.738 13.738 21.213 21.213 13.738-13.738 20.406 20.406-13.738 13.738c-7.575 7.576-19.901 7.575-27.477 0l-27.875-27.875-21.213 21.213 27.875 27.875c9.636 9.636 22.293 14.454 34.951 14.454s25.315-4.818 34.951-14.454l103.163-103.163 13.025 13.025 48.715-48.715 18.391 18.391 69.903-69.902-19.262-19.262 137.227-163.296-16.393-16.394 23.817-23.817c19.272-19.273 19.272-50.631 0-69.903zm-403.531 341.508 62.024 62.023-23.339 23.339-62.023-62.023zm83.237 40.811-62.024-62.024 23.66-23.66 62.024 62.024zm57.897-31.849-88.072-88.072 27.501-27.502 88.073 88.073zm67.106-30.324-124.855-124.854 27.476-27.476 124.855 124.855zm29.348-68.03-86.173-86.173 140.243-117.853 63.784 63.784zm144.73-203.426-23.817 23.816-27.476-27.476 23.817-23.817c7.576-7.575 19.902-7.575 27.476 0 7.575 7.575 7.575 19.902 0 27.477z"/></svg>